<svg width="40" height="40" viewBox="0 0 40 40" fill="none" xmlns="http://www.w3.org/2000/svg">
  <!-- Background Circle -->
  <circle cx="20" cy="20" r="20" fill="url(#gradient)" />
  
  <!-- Calendar Icon -->
  <rect x="10" y="12" width="20" height="16" rx="2" fill="white" fill-opacity="0.9"/>
  <rect x="10" y="12" width="20" height="4" rx="2" fill="white"/>
  
  <!-- Calendar Grid -->
  <line x1="13" y1="18" x2="13" y2="26" stroke="#ec4899" stroke-width="1"/>
  <line x1="16.5" y1="18" x2="16.5" y2="26" stroke="#ec4899" stroke-width="1"/>
  <line x1="20" y1="18" x2="20" y2="26" stroke="#ec4899" stroke-width="1"/>
  <line x1="23.5" y1="18" x2="23.5" y2="26" stroke="#ec4899" stroke-width="1"/>
  <line x1="27" y1="18" x2="27" y2="26" stroke="#ec4899" stroke-width="1"/>
  
  <line x1="10" y1="19" x2="30" y2="19" stroke="#ec4899" stroke-width="1"/>
  <line x1="10" y1="22" x2="30" y2="22" stroke="#ec4899" stroke-width="1"/>
  <line x1="10" y1="25" x2="30" y2="25" stroke="#ec4899" stroke-width="1"/>
  
  <!-- Period Dots -->
  <circle cx="14.75" cy="20.5" r="1.5" fill="#ec4899"/>
  <circle cx="18.25" cy="20.5" r="1.5" fill="#ec4899"/>
  <circle cx="21.75" cy="20.5" r="1.5" fill="#ec4899"/>
  
  <!-- Heart for ovulation -->
  <path d="M23.5 23.5c0-.5.5-1 1-1s1 .5 1 1-.5 1-1 1-1-.5-1-1z" fill="#f43f5e"/>
  
  <defs>
    <linearGradient id="gradient" x1="0%" y1="0%" x2="100%" y2="100%">
      <stop offset="0%" style="stop-color:#ec4899;stop-opacity:1" />
      <stop offset="100%" style="stop-color:#f43f5e;stop-opacity:1" />
    </linearGradient>
  </defs>
</svg>
